{
  "accessors": [
    {
      "bufferView": 2,
      "componentType": 5126,
      "count": 3056,
      "max": [
        36.805900573730469,
        32,
        6.7183570861816406
      ],
      "min": [
        -36.805900573730469,
        -2.4820669980863807e-16,
        -76.718360900878906
      ],
      "type": "VEC3"
    },
    {
      "bufferView": 2,
      "byteOffset": 36672,
      "componentType": 5126,
      "count": 3056,
      "max": [
        1,
        1,
        1
      ],
      "min": [
        -1,
        -1,
        -1
      ],
      "type": "VEC3"
    },
    {
      "bufferView": 1,
      "componentType": 5126,
      "count": 3056,
      "max": [
        5.8051819801330566,
        5.877349853515625
      ],
      "min": [
        -5.8051819801330566,
        -5.877349853515625
      ],
      "type": "VEC2"
    },
    {
      "bufferView": 0,
      "componentType": 5125,
      "count": 5571,
      "max": [
        3055
      ],
      "min": [
        0
      ],
      "type": "SCALAR"
    },
    {
      "bufferView": 2,
      "byteOffset": 73344,
      "componentType": 5126,
      "count": 5041,
      "max": [
        36.744361877441406,
        29,
        6.7183570861816406
      ],
      "min": [
        -36.744361877441406,
        -8.7572651352729736e-09,
        -76.718360900878906
      ],
      "type": "VEC3"
    },
    {
      "bufferView": 2,
      "byteOffset": 133836,
      "componentType": 5126,
      "count": 5041,
      "max": [
        1,
        1,
        1
      ],
      "min": [
        -1,
        -1,
        -1
      ],
      "type": "VEC3"
    },
    {
      "bufferView": 1,
      "byteOffset": 24448,
      "componentType": 5126,
      "count": 5041,
      "max": [
        5.5000009536743164,
        5.5773510932922363
      ],
      "min": [
        -5.5000009536743164,
        -5.6928849220275879
      ],
      "type": "VEC2"
    },
    {
      "bufferView": 0,
      "byteOffset": 22284,
      "componentType": 5125,
      "count": 9246,
      "max": [
        5040
      ],
      "min": [
        0
      ],
      "type": "SCALAR"
    },
    {
      "bufferView": 2,
      "byteOffset": 194328,
      "componentType": 5126,
      "count": 255,
      "max": [
        34.945621490478516,
        34.400001525878906,
        4.9196209907531738
      ],
      "min": [
        -34.945621490478516,
        7.0741171836853027,
        -74.91961669921875
      ],
      "type": "VEC3"
    },
    {
      "bufferView": 2,
      "byteOffset": 197388,
      "componentType": 5126,
      "count": 255,
      "max": [
        0.93642640113830566,
        0.49331739544868469,
        0.93642634153366089
      ],
      "min": [
        -0.93642640113830566,
        0,
        -0.93642634153366089
      ],
      "type": "VEC3"
    },
    {
      "bufferView": 1,
      "byteOffset": 64776,
      "componentType": 5126,
      "count": 255,
      "max": [
        5.2533130645751953,
        4
      ],
      "min": [
        -5.2533130645751953,
        0.70741170644760132
      ],
      "type": "VEC2"
    },
    {
      "bufferView": 0,
      "byteOffset": 59268,
      "componentType": 5125,
      "count": 378,
      "max": [
        254
      ],
      "min": [
        0
      ],
      "type": "SCALAR"
    },
    {
      "bufferView": 2,
      "byteOffset": 200448,
      "componentType": 5126,
      "count": 389,
      "max": [
        35.604579925537109,
        14.074339866638184,
        5.6125831604003906
      ],
      "min": [
        -35.604579925537109,
        3.6218979358673096,
        -75.612579345703125
      ],
      "type": "VEC3"
    },
    {
      "bufferView": 2,
      "byteOffset": 205116,
      "componentType": 5126,
      "count": 389,
      "max": [
        1,
        1,
        0.85749298334121704
      ],
      "min": [
        -1,
        -1,
        -0.85749298334121704
      ],
      "type": "VEC3"
    },
    {
      "bufferView": 1,
      "byteOffset": 66816,
      "componentType": 5126,
      "count": 389,
      "max": [
        7.532501220703125,
        7.5450010299682617
      ],
      "min": [
        -7.532501220703125,
        -7.5450010299682617
      ],
      "type": "VEC2"
    },
    {
      "bufferView": 0,
      "byteOffset": 60780,
      "componentType": 5125,
      "count": 657,
      "max": [
        388
      ],
      "min": [
        0
      ],
      "type": "SCALAR"
    },
    {
      "bufferView": 2,
      "byteOffset": 209784,
      "componentType": 5126,
      "count": 192,
      "max": [
        35.339420318603516,
        13.100000381469727,
        5.3474178314208984
      ],
      "min": [
        -35.339420318603516,
        6.3012561798095703,
        -75.347419738769531
      ],
      "type": "VEC3"
    },
    {
      "bufferView": 2,
      "byteOffset": 212088,
      "componentType": 5126,
      "count": 192,
      "max": [
        0.7071068286895752,
        1,
        0.70710694789886475
      ],
      "min": [
        -0.7071068286895752,
        0,
        -0.70710694789886475
      ],
      "type": "VEC3"
    },
    {
      "bufferView": 1,
      "byteOffset": 69928,
      "componentType": 5126,
      "count": 192,
      "max": [
        3.192500114440918,
        1.309999942779541
      ],
      "min": [
        -3.192500114440918,
        -7.5450010299682617
      ],
      "type": "VEC2"
    },
    {
      "bufferView": 0,
      "byteOffset": 63408,
      "componentType": 5125,
      "count": 384,
      "max": [
        191
      ],
      "min": [
        0
      ],
      "type": "SCALAR"
    },
    {
      "bufferView": 2,
      "byteOffset": 214392,
      "componentType": 5126,
      "count": 256,
      "max": [
        -1.8320000171661377,
        20.27692985534668,
        -14.800000190734863
      ],
      "min": [
        -10.300000190734863,
        1.4285709857940674,
        -54.768428802490234
      ],
      "type": "VEC3"
    },
    {
      "bufferView": 2,
      "byteOffset": 217464,
      "componentType": 5126,
      "count": 256,
      "max": [
        1,
        1,
        1
      ],
      "min": [
        -1,
        -1,
        -1
      ],
      "type": "VEC3"
    },
    {
      "bufferView": 1,
      "byteOffset": 71464,
      "componentType": 5126,
      "count": 256,
      "max": [
        5.1883540153503418,
        5.2166709899902344
      ],
      "min": [
        -5.2166709899902344,
        -5.2166709899902344
      ],
      "type": "VEC2"
    },
    {
      "bufferView": 0,
      "byteOffset": 64944,
      "componentType": 5125,
      "count": 384,
      "max": [
        255
      ],
      "min": [
        0
      ],
      "type": "SCALAR"
    },
    {
      "bufferView": 2,
      "byteOffset": 220536,
      "componentType": 5126,
      "count": 372,
      "max": [
        -16.634000778198242,
        12.2847900390625,
        -57.943588256835938
      ],
      "min": [
        -37.535560607910156,
        0,
        -83.339111328125
      ],
      "type": "VEC3"
    },
    {
      "bufferView": 2,
      "byteOffset": 225000,
      "componentType": 5126,
      "count": 372,
      "max": [
        0.98906940221786499,
        1,
        0.86393201351165771
      ],
      "min": [
        -0.98906940221786499,
        -1,
        -0.97127699851989746
      ],
      "type": "VEC3"
    },
    {
      "bufferView": 1,
      "byteOffset": 73512,
      "componentType": 5126,
      "count": 372,
      "max": [
        6.6686429977416992,
        6.8118419647216797
      ],
      "min": [
        -6.6846380233764648,
        -6.6575698852539062
      ],
      "type": "VEC2"
    },
    {
      "bufferView": 0,
      "byteOffset": 66480,
      "componentType": 5125,
      "count": 720,
      "max": [
        371
      ],
      "min": [
        0
      ],
      "type": "SCALAR"
    }
  ],
  "asset": {
    "extras": {
      "author": "TheCrafter (https://sketchfab.com/thecrafter)",
      "license": "CC-BY-4.0 (http://creativecommons.org/licenses/by/4.0/)",
      "source": "https://sketchfab.com/3d-models/low-poly-castle-d4de0e8229a74c5a88a02ab66fcaed4a",
      "title": "Low-Poly Castle"
    },
    "generator": "Sketchfab-8.3.0",
    "version": "2.0"
  },
  "bufferViews": [
    {
      "buffer": 0,
      "byteLength": 69360,
      "byteOffset": 0,
      "name": "floatBufferViews",
      "target": 34963
    },
    {
      "buffer": 0,
      "byteLength": 76488,
      "byteOffset": 69360,
      "byteStride": 8,
      "name": "floatBufferViews",
      "target": 34962
    },
    {
      "buffer": 0,
      "byteLength": 229464,
      "byteOffset": 145848,
      "byteStride": 12,
      "name": "floatBufferViews",
      "target": 34962
    }
  ],
  "buffers": [
    {
      "byteLength": 375312,
      "uri": "scene.bin"
    }
  ],
  "materials": [
    {
      "doubleSided": true,
      "emissiveFactor": [
        0,
        0,
        0
      ],
      "name": "stoneDark",
      "pbrMetallicRoughness": {
        "baseColorFactor": [
          0.013145425602123156,
          0.012570176044672338,
          0.030152376792982615,
          1
        ],
        "metallicFactor": 0,
        "roughnessFactor": 0.95770514946237739
      }
    },
    {
      "doubleSided": true,
      "emissiveFactor": [
        0,
        0,
        0
      ],
      "name": "stone",
      "pbrMetallicRoughness": {
        "baseColorFactor": [
          0.22653400390734113,
          0.22653400390734113,
          0.22653400390734113,
          1
        ],
        "metallicFactor": 0,
        "roughnessFactor": 0.95770514946237739
      }
    },
    {
      "doubleSided": true,
      "emissiveFactor": [
        0,
        0,
        0
      ],
      "name": "bricks",
      "pbrMetallicRoughness": {
        "baseColorFactor": [
          0.10286909763063108,
          0.0034056784153525359,
          0.0034056784153525359,
          1
        ],
        "metallicFactor": 0,
        "roughnessFactor": 0.95770514946237739
      }
    },
    {
      "doubleSided": true,
      "emissiveFactor": [
        0,
        0,
        0
      ],
      "name": "woodLight",
      "pbrMetallicRoughness": {
        "baseColorFactor": [
          0.12856811131236873,
          0.051375241778198556,
          0.012821288479191041,
          1
        ],
        "metallicFactor": 0,
        "roughnessFactor": 0.95770514946237739
      }
    },
    {
      "doubleSided": true,
      "emissiveFactor": [
        0,
        0,
        0
      ],
      "name": "bricksDark",
      "pbrMetallicRoughness": {
        "baseColorFactor": [
          0.53292086172828168,
          0.53292086172828168,
          0.53292086172828168,
          1
        ],
        "metallicFactor": 0,
        "roughnessFactor": 0.042294850537622566
      }
    },
    {
      "doubleSided": true,
      "emissiveFactor": [
        0,
        0,
        0
      ],
      "name": "wood",
      "pbrMetallicRoughness": {
        "baseColorFactor": [
          0.090015850884717488,
          0.039579262279779204,
          0.0029549845831635087,
          1
        ],
        "metallicFactor": 0,
        "roughnessFactor": 0.95770514946237739
      }
    },
    {
      "doubleSided": true,
      "emissiveFactor": [
        0,
        0,
        0
      ],
      "name": "custom6",
      "pbrMetallicRoughness": {
        "baseColorFactor": [
          0.434,
          0.38300000000000001,
          0.38300000000000001,
          1
        ],
        "metallicFactor": 0,
        "roughnessFactor": 0.95770514946237739
      }
    }
  ],
  "meshes": [
    {
      "name": "mergedBlocks_stoneDark_0",
      "primitives": [
        {
          "attributes": {
            "NORMAL": 1,
            "POSITION": 0,
            "TEXCOORD_0": 2
          },
          "indices": 3,
          "material": 0,
          "mode": 4
        }
      ]
    },
    {
      "name": "mergedBlocks_stone_0",
      "primitives": [
        {
          "attributes": {
            "NORMAL": 5,
            "POSITION": 4,
            "TEXCOORD_0": 6
          },
          "indices": 7,
          "material": 1,
          "mode": 4
        }
      ]
    },
    {
      "name": "mergedBlocks_bricks_0",
      "primitives": [
        {
          "attributes": {
            "NORMAL": 9,
            "POSITION": 8,
            "TEXCOORD_0": 10
          },
          "indices": 11,
          "material": 2,
          "mode": 4
        }
      ]
    },
    {
      "name": "mergedBlocks_woodLight_0",
      "primitives": [
        {
          "attributes": {
            "NORMAL": 13,
            "POSITION": 12,
            "TEXCOORD_0": 14
          },
          "indices": 15,
          "material": 3,
          "mode": 4
        }
      ]
    },
    {
      "name": "mergedBlocks_bricksDark_0",
      "primitives": [
        {
          "attributes": {
            "NORMAL": 17,
            "POSITION": 16,
            "TEXCOORD_0": 18
          },
          "indices": 19,
          "material": 4,
          "mode": 4
        }
      ]
    },
    {
      "name": "mergedBlocks_wood_0",
      "primitives": [
        {
          "attributes": {
            "NORMAL": 21,
            "POSITION": 20,
            "TEXCOORD_0": 22
          },
          "indices": 23,
          "material": 5,
          "mode": 4
        }
      ]
    },
    {
      "name": "mergedBlocks_custom6_0",
      "primitives": [
        {
          "attributes": {
            "NORMAL": 25,
            "POSITION": 24,
            "TEXCOORD_0": 26
          },
          "indices": 27,
          "material": 6,
          "mode": 4
        }
      ]
    }
  ],
  "nodes": [
    {
      "children": [
        1
      ],
      "name": "RootNode (gltf orientation matrix)",
      "rotation": [
        -0.70710678118654746,
        -0,
        -0,
        0.70710678118654757
      ]
    },
    {
      "children": [
        2
      ],
      "name": "RootNode (model correction matrix)"
    },
    {
      "children": [
        3
      ],
      "matrix": [
        1,
        0,
        0,
        0,
        0,
        0,
        1,
        0,
        0,
        -1,
        0,
        0,
        0,
        0,
        0,
        1
      ],
      "name": "10bf40861c5344f5a2cd821a8a88a61f.fbx"
    },
    {
      "children": [
        4
      ],
      "name": "RootNode"
    },
    {
      "children": [
        5,
        6,
        7,
        8,
        9,
        10,
        11
      ],
      "name": "mergedBlocks"
    },
    {
      "mesh": 0,
      "name": "mergedBlocks_stoneDark_0"
    },
    {
      "mesh": 1,
      "name": "mergedBlocks_stone_0"
    },
    {
      "mesh": 2,
      "name": "mergedBlocks_bricks_0"
    },
    {
      "mesh": 3,
      "name": "mergedBlocks_woodLight_0"
    },
    {
      "mesh": 4,
      "name": "mergedBlocks_bricksDark_0"
    },
    {
      "mesh": 5,
      "name": "mergedBlocks_wood_0"
    },
    {
      "mesh": 6,
      "name": "mergedBlocks_custom6_0"
    }
  ],
  "scene": 0,
  "scenes": [
    {
      "name": "OSG_Scene",
      "nodes": [
        0
      ]
    }
  ]
}

